<svg width="300" height="300" viewBox="0 0 300 300" fill="none" xmlns="http://www.w3.org/2000/svg">
<rect x="11" y="11" width="278" height="278" rx="33" fill="#0B0B0B"/>
<path d="M114.394 122.655C130.246 122.655 139.577 115.731 139.577 102.584C139.577 94.1538 134.058 87.6305 125.229 85.4227C131.349 83.6162 136.366 76.7919 136.366 70.1683C136.366 57.6236 127.136 51 111.183 51H86V122.655H114.394ZM94.5281 82.6127V58.025H111.785C122.42 58.025 127.637 62.3404 127.637 70.2687C127.637 78.0966 122.32 82.6127 111.685 82.6127H94.5281ZM94.5281 89.3366H113.792C124.728 89.3366 130.948 94.3545 130.948 102.584C130.948 110.813 124.928 115.63 113.992 115.63H94.5281V89.3366Z" fill="white"/>
<path d="M204.97 122.655H214L184.904 51H175.172L146.176 122.655H154.805L162.731 102.684H197.044L204.97 122.655ZM179.787 59.6308H180.088L194.235 95.5588H165.54L179.787 59.6308Z" fill="white"/>
<path d="M86 248H133.155V240.774H94.6284V176.345H86V248Z" fill="white"/>
<path d="M152 226.64C153.011 242.282 166.152 249 181.819 249C197.083 249 208 240.377 208 228.144C208 216.813 200.924 211.699 189.805 209.493L175.653 206.585C166.859 204.881 162.816 202.374 162.816 195.255C162.816 187.734 169.083 181.919 179.596 181.919C189.906 181.919 196.982 186.531 198.195 194.553H206.585C205.17 181.618 194.96 175 179.495 175C164.534 175 154.325 183.824 154.325 195.556C154.325 207.889 163.018 212.301 172.722 214.106L186.469 216.813C196.274 218.618 199.61 222.528 199.61 228.545C199.61 237.168 192.029 242.081 181.718 242.081C171.004 242.081 161.502 238.171 160.39 226.64H152Z" fill="white"/>
</svg>
