<svg width="512" height="512" viewBox="0 0 512 512" fill="none" xmlns="http://www.w3.org/2000/svg">
<rect x="18.7734" y="18.7733" width="474.453" height="474.453" rx="56.32" fill="#0B0B0B"/>
<path d="M260.794 363C308.135 363 336 342.319 336 303.056C336 277.88 319.521 258.398 293.154 251.804C311.431 246.409 326.412 226.028 326.412 206.247C326.412 168.782 298.846 149 251.206 149H176V363H260.794ZM201.468 243.412V169.98H253.004C284.764 169.98 300.345 182.868 300.345 206.546C300.345 229.924 284.464 243.412 252.704 243.412H201.468ZM201.468 263.493H258.996C291.655 263.493 310.232 278.479 310.232 303.056C310.232 327.633 292.255 342.02 259.595 342.02H201.468V263.493Z" fill="white"/>
</svg>
